<svg xmlns="http://www.w3.org/2000/svg" xmlns:xlink="http://www.w3.org/1999/xlink" width="1120" zoomAndPan="magnify" viewBox="0 0 840 839.999992" height="1120" preserveAspectRatio="xMidYMid meet" version="1.0"><defs><g/></defs><g fill="#ff00ff" fill-opacity="1"><g transform="translate(24.539065, 683.749936)"><g><path d="M 214.5625 -553.6875 C 247.675781 -553.6875 265.675781 -546.242188 268.5625 -531.359375 L 317.515625 -310.3125 L 367.203125 -15.84375 C 368.160156 -11.039062 368.640625 -6.597656 368.640625 -2.515625 C 368.640625 1.554688 367.4375 4.910156 365.03125 7.546875 C 362.632812 10.191406 354.476562 11.515625 340.5625 11.515625 C 297.84375 11.515625 275.039062 2.394531 272.15625 -15.84375 L 246.953125 -164.15625 L 146.15625 -164.15625 L 123.84375 -15.125 C 122.40625 -5.039062 120.601562 1.675781 118.4375 5.03125 C 116.28125 8.394531 113.28125 10.316406 109.4375 10.796875 C 105.601562 11.273438 99.363281 11.515625 90.71875 11.515625 L 70.5625 11.515625 C 53.757812 11.515625 43.195312 10.554688 38.875 8.640625 C 28.320312 4.796875 22.320312 0.476562 20.875 -4.3125 C 20.394531 -6.71875 20.15625 -8.878906 20.15625 -10.796875 C 20.15625 -12.722656 25.195312 -44.40625 35.28125 -105.84375 C 45.363281 -167.28125 57.722656 -240.476562 72.359375 -325.4375 C 86.992188 -410.394531 96.59375 -466.070312 101.15625 -492.46875 C 105.71875 -518.875 108.238281 -533.757812 108.71875 -537.125 C 110.632812 -548.164062 145.914062 -553.6875 214.5625 -553.6875 Z M 192.953125 -459.359375 L 159.84375 -251.28125 L 231.125 -251.28125 Z M 192.953125 -459.359375 "/></g></g></g><g fill="#ff00ff" fill-opacity="1"><g transform="translate(412.618363, 683.749936)"><g><path d="M 296.640625 -15.125 L 296.640625 -342 L 249.84375 -254.875 L 177.125 -254.875 L 133.203125 -340.5625 L 133.203125 -15.84375 C 133.203125 -7.195312 132.960938 -1.4375 132.484375 1.4375 C 130.554688 8.15625 121.195312 11.515625 104.40625 11.515625 C 56.40625 11.515625 32.40625 2.632812 32.40625 -15.125 L 32.40625 -525.59375 C 32.40625 -543.832031 48.960938 -552.953125 82.078125 -552.953125 C 115.203125 -552.953125 135.125 -544.070312 141.84375 -526.3125 L 214.5625 -340.5625 L 290.875 -527.046875 C 294.71875 -537.597656 299.398438 -544.550781 304.921875 -547.90625 C 310.441406 -551.269531 320.160156 -552.953125 334.078125 -552.953125 C 368.640625 -552.953125 386.160156 -543.59375 386.640625 -524.875 L 398.15625 -310.3125 L 398.15625 -20.15625 C 398.15625 -5.757812 396.832031 3.113281 394.1875 6.46875 C 391.550781 9.832031 382.910156 11.515625 368.265625 11.515625 C 353.628906 11.515625 341.75 11.035156 332.625 10.078125 C 323.507812 9.117188 315.234375 6.597656 307.796875 2.515625 C 300.359375 -1.554688 296.640625 -7.4375 296.640625 -15.125 Z M 296.640625 -15.125 "/></g></g></g><g fill="#00ffff" fill-opacity="1"><g transform="translate(-2.460934, 683.749936)"><g><path d="M 214.5625 -553.6875 C 247.675781 -553.6875 265.675781 -546.242188 268.5625 -531.359375 L 317.515625 -310.3125 L 367.203125 -15.84375 C 368.160156 -11.039062 368.640625 -6.597656 368.640625 -2.515625 C 368.640625 1.554688 367.4375 4.910156 365.03125 7.546875 C 362.632812 10.191406 354.476562 11.515625 340.5625 11.515625 C 297.84375 11.515625 275.039062 2.394531 272.15625 -15.84375 L 246.953125 -164.15625 L 146.15625 -164.15625 L 123.84375 -15.125 C 122.40625 -5.039062 120.601562 1.675781 118.4375 5.03125 C 116.28125 8.394531 113.28125 10.316406 109.4375 10.796875 C 105.601562 11.273438 99.363281 11.515625 90.71875 11.515625 L 70.5625 11.515625 C 53.757812 11.515625 43.195312 10.554688 38.875 8.640625 C 28.320312 4.796875 22.320312 0.476562 20.875 -4.3125 C 20.394531 -6.71875 20.15625 -8.878906 20.15625 -10.796875 C 20.15625 -12.722656 25.195312 -44.40625 35.28125 -105.84375 C 45.363281 -167.28125 57.722656 -240.476562 72.359375 -325.4375 C 86.992188 -410.394531 96.59375 -466.070312 101.15625 -492.46875 C 105.71875 -518.875 108.238281 -533.757812 108.71875 -537.125 C 110.632812 -548.164062 145.914062 -553.6875 214.5625 -553.6875 Z M 192.953125 -459.359375 L 159.84375 -251.28125 L 231.125 -251.28125 Z M 192.953125 -459.359375 "/></g></g></g><g fill="#00ffff" fill-opacity="1"><g transform="translate(385.618364, 683.749936)"><g><path d="M 296.640625 -15.125 L 296.640625 -342 L 249.84375 -254.875 L 177.125 -254.875 L 133.203125 -340.5625 L 133.203125 -15.84375 C 133.203125 -7.195312 132.960938 -1.4375 132.484375 1.4375 C 130.554688 8.15625 121.195312 11.515625 104.40625 11.515625 C 56.40625 11.515625 32.40625 2.632812 32.40625 -15.125 L 32.40625 -525.59375 C 32.40625 -543.832031 48.960938 -552.953125 82.078125 -552.953125 C 115.203125 -552.953125 135.125 -544.070312 141.84375 -526.3125 L 214.5625 -340.5625 L 290.875 -527.046875 C 294.71875 -537.597656 299.398438 -544.550781 304.921875 -547.90625 C 310.441406 -551.269531 320.160156 -552.953125 334.078125 -552.953125 C 368.640625 -552.953125 386.160156 -543.59375 386.640625 -524.875 L 398.15625 -310.3125 L 398.15625 -20.15625 C 398.15625 -5.757812 396.832031 3.113281 394.1875 6.46875 C 391.550781 9.832031 382.910156 11.515625 368.265625 11.515625 C 353.628906 11.515625 341.75 11.035156 332.625 10.078125 C 323.507812 9.117188 315.234375 6.597656 307.796875 2.515625 C 300.359375 -1.554688 296.640625 -7.4375 296.640625 -15.125 Z M 296.640625 -15.125 "/></g></g></g><g fill="#004aad" fill-opacity="1"><g transform="translate(11.039066, 683.749936)"><g><path d="M 214.5625 -553.6875 C 247.675781 -553.6875 265.675781 -546.242188 268.5625 -531.359375 L 317.515625 -310.3125 L 367.203125 -15.84375 C 368.160156 -11.039062 368.640625 -6.597656 368.640625 -2.515625 C 368.640625 1.554688 367.4375 4.910156 365.03125 7.546875 C 362.632812 10.191406 354.476562 11.515625 340.5625 11.515625 C 297.84375 11.515625 275.039062 2.394531 272.15625 -15.84375 L 246.953125 -164.15625 L 146.15625 -164.15625 L 123.84375 -15.125 C 122.40625 -5.039062 120.601562 1.675781 118.4375 5.03125 C 116.28125 8.394531 113.28125 10.316406 109.4375 10.796875 C 105.601562 11.273438 99.363281 11.515625 90.71875 11.515625 L 70.5625 11.515625 C 53.757812 11.515625 43.195312 10.554688 38.875 8.640625 C 28.320312 4.796875 22.320312 0.476562 20.875 -4.3125 C 20.394531 -6.71875 20.15625 -8.878906 20.15625 -10.796875 C 20.15625 -12.722656 25.195312 -44.40625 35.28125 -105.84375 C 45.363281 -167.28125 57.722656 -240.476562 72.359375 -325.4375 C 86.992188 -410.394531 96.59375 -466.070312 101.15625 -492.46875 C 105.71875 -518.875 108.238281 -533.757812 108.71875 -537.125 C 110.632812 -548.164062 145.914062 -553.6875 214.5625 -553.6875 Z M 192.953125 -459.359375 L 159.84375 -251.28125 L 231.125 -251.28125 Z M 192.953125 -459.359375 "/></g></g></g><g fill="#004aad" fill-opacity="1"><g transform="translate(399.118364, 683.749936)"><g><path d="M 296.640625 -15.125 L 296.640625 -342 L 249.84375 -254.875 L 177.125 -254.875 L 133.203125 -340.5625 L 133.203125 -15.84375 C 133.203125 -7.195312 132.960938 -1.4375 132.484375 1.4375 C 130.554688 8.15625 121.195312 11.515625 104.40625 11.515625 C 56.40625 11.515625 32.40625 2.632812 32.40625 -15.125 L 32.40625 -525.59375 C 32.40625 -543.832031 48.960938 -552.953125 82.078125 -552.953125 C 115.203125 -552.953125 135.125 -544.070312 141.84375 -526.3125 L 214.5625 -340.5625 L 290.875 -527.046875 C 294.71875 -537.597656 299.398438 -544.550781 304.921875 -547.90625 C 310.441406 -551.269531 320.160156 -552.953125 334.078125 -552.953125 C 368.640625 -552.953125 386.160156 -543.59375 386.640625 -524.875 L 398.15625 -310.3125 L 398.15625 -20.15625 C 398.15625 -5.757812 396.832031 3.113281 394.1875 6.46875 C 391.550781 9.832031 382.910156 11.515625 368.265625 11.515625 C 353.628906 11.515625 341.75 11.035156 332.625 10.078125 C 323.507812 9.117188 315.234375 6.597656 307.796875 2.515625 C 300.359375 -1.554688 296.640625 -7.4375 296.640625 -15.125 Z M 296.640625 -15.125 "/></g></g></g></svg>